<svg xmlns="http://www.w3.org/2000/svg" width="128" height="128" viewBox="0 0 128 128"><defs><linearGradient id="amber" x2="0" y2="1"><stop stop-color="#fff0b5"/><stop offset="1" stop-color="#e69845"/></linearGradient><linearGradient id="ivory" x2="0" y2="1"><stop stop-color="#fffdf1"/><stop offset="1" stop-color="#b6d9e8"/></linearGradient><linearGradient id="sage" x2="0" y2="1"><stop stop-color="#e7e6ac"/><stop offset="1" stop-color="#7faa9b"/></linearGradient></defs><g stroke="#d7f5ff" stroke-width="5" stroke-linecap="round"><g transform="rotate(0 64 64)"><path d="M64 64V20M64 34L51 25M64 34L77 25M64 47L54 40M64 47L74 40"/></g><g transform="rotate(60 64 64)"><path d="M64 64V20M64 34L51 25M64 34L77 25M64 47L54 40M64 47L74 40"/></g><g transform="rotate(120 64 64)"><path d="M64 64V20M64 34L51 25M64 34L77 25M64 47L54 40M64 47L74 40"/></g><g transform="rotate(180 64 64)"><path d="M64 64V20M64 34L51 25M64 34L77 25M64 47L54 40M64 47L74 40"/></g><g transform="rotate(240 64 64)"><path d="M64 64V20M64 34L51 25M64 34L77 25M64 47L54 40M64 47L74 40"/></g><g transform="rotate(300 64 64)"><path d="M64 64V20M64 34L51 25M64 34L77 25M64 47L54 40M64 47L74 40"/></g></g><circle cx="64" cy="64" r="7" fill="#fffdf1"/></svg>